<svg width="696" height="607" viewBox="0 0 696 607" fill="none" xmlns="http://www.w3.org/2000/svg">
<path fill-rule="evenodd" clip-rule="evenodd" d="M484.5 1.00099C498.251 2.25099 507.735 4.28299 520.424 8.69699C539.379 15.292 551.5 22.534 577.256 42.651C616.052 72.953 632.957 81.484 672 90.463C684.856 93.419 693.87 97.415 695.084 100.697C695.665 102.268 695.279 103.72 693.694 105.93C692.487 107.612 679.407 119.86 664.627 133.146C632.049 162.432 633.527 160.128 634.282 180.418C634.57 188.163 635.754 199.9 636.913 206.5C642.949 240.873 641.896 265.175 632.904 298.979C624.535 330.443 607.078 365.416 584.921 395.106C578.142 404.189 577 406.292 577 409.686C577 413.454 578.772 416.17 582.649 418.348C583.282 418.703 602.632 419.881 625.649 420.966C673.631 423.228 677.057 423.528 682.5 425.949C688.804 428.753 691.26 432.09 691.798 438.582C692.75 450.063 687.613 459.803 672.59 475C664.066 483.622 657.226 488.065 646.835 491.725L639.5 494.31L585.5 495.044C555.8 495.449 491 495.941 441.5 496.14C346.368 496.521 345.561 496.487 341.484 491.982C339.762 490.08 339.749 489.749 341.276 486.548C343.434 482.023 350.069 477.23 370.5 465.439C427.429 432.584 473.312 397.416 507.521 360.419C525.791 340.66 533.119 330.635 541.621 313.767C552.114 292.949 557.919 262.164 556.57 234.5C555.772 218.149 554.771 213.499 551.248 209.773C547.481 205.789 544.588 205.212 522.5 204.045C485.579 202.095 461.562 205.552 439.327 216.016C420.606 224.827 408.597 233.82 384.033 257.427C354.268 286.031 317.368 318.466 261.446 365.181C203.497 413.59 190.639 427.698 162.57 473.681C154.909 486.231 144.868 502.261 140.258 509.301C104.373 564.098 71.4533 591.504 25.3923 604.928C21.4833 606.068 16.5253 607 14.3743 607C8.7373 607 3.6283 603.211 1.40031 597.377C-0.297695 592.932 -0.301697 592.373 1.3213 586.1C4.8113 572.604 15.1063 554.682 58.2433 487C90.9743 435.645 167.452 316.31 184.495 290C185.741 288.075 210.061 250.5 238.538 206.5C300.81 110.282 308.832 98.312 322.675 80.952C336.438 63.694 358.509 41.631 372.341 31.304C384.943 21.895 400.982 13.294 412.843 9.58398C428.597 4.65598 452.137 0.730982 469.5 0.137982C471.7 0.0629824 478.45 0.451989 484.5 1.00099ZM489.491 107.865C469.521 116.937 475.33 147 497.395 148.769C504.123 149.308 512.161 145.27 516.419 139.212C519.793 134.411 521.018 125.601 519.111 119.856C515.446 108.82 500.611 102.814 489.491 107.865Z" fill="#FEC803"/>
</svg>
